<svg width="357" height="357" viewBox="0 0 357 357" fill="none" xmlns="http://www.w3.org/2000/svg">
<g filter="url(#filter0_d)">
<path d="M178 295C176.989 295 175.981 294.987 174.976 294.962L174.951 295.962C172.914 295.911 170.889 295.81 168.879 295.659L168.954 294.661C166.94 294.51 164.939 294.308 162.955 294.058L162.829 295.05C160.81 294.795 158.806 294.49 156.819 294.137L156.994 293.152C155.007 292.798 153.038 292.395 151.087 291.944L150.862 292.918C148.88 292.46 146.918 291.953 144.975 291.398L145.25 290.437C143.311 289.883 141.393 289.281 139.497 288.633L139.173 289.58C137.25 288.922 135.35 288.218 133.472 287.467L133.843 286.539C131.973 285.791 130.126 284.997 128.304 284.158L127.886 285.067C126.041 284.218 124.222 283.323 122.429 282.385L122.893 281.499C121.109 280.566 119.353 279.588 117.624 278.568L117.116 279.429C115.368 278.398 113.648 277.324 111.959 276.208L112.51 275.374C110.831 274.265 109.182 273.115 107.564 271.925L106.971 272.731C105.337 271.529 103.735 270.287 102.166 269.006L102.798 268.231C101.24 266.959 99.7151 265.649 98.2243 264.301L97.5537 265.043C96.0498 263.683 94.5804 262.286 93.1472 260.853L93.8543 260.146C92.4329 258.724 91.0473 257.267 89.699 255.776L88.9572 256.446C87.5983 254.943 86.2769 253.405 84.9945 251.834L85.7691 251.202C84.4986 249.646 83.2667 248.057 82.0749 246.436L81.2693 247.029C80.0693 245.397 78.9095 243.734 77.7916 242.041L78.626 241.49C77.5196 239.815 76.4543 238.11 75.4318 236.376L74.5705 236.884C73.542 235.141 72.5564 233.369 71.615 231.571L72.501 231.107C71.5705 229.329 70.6836 227.525 69.8417 225.696L68.9333 226.114C68.0876 224.277 67.287 222.414 66.5328 220.528L67.4614 220.157C66.717 218.295 66.0183 216.41 65.3667 214.503L64.4204 214.827C63.7667 212.914 63.1601 210.98 62.6017 209.025L63.5632 208.75C63.013 206.824 62.5101 204.878 62.0558 202.913L61.0815 203.138C60.6267 201.171 60.2202 199.185 59.8635 197.181L60.848 197.006C60.497 195.036 60.1946 193.048 59.9419 191.045L58.9498 191.171C58.6973 189.169 58.4941 187.152 58.3415 185.121L59.3387 185.046C59.1888 183.052 59.0881 181.044 59.0377 179.024L58.038 179.049C58.0127 178.036 58 177.019 58 176H59C59 174.989 59.0126 173.981 59.0377 172.976L58.038 172.951C58.0888 170.914 58.1904 168.889 58.3415 166.879L59.3387 166.954C59.49 164.94 59.6915 162.939 59.9419 160.955L58.9498 160.829C59.2046 158.81 59.5096 156.806 59.8635 154.819L60.848 154.994C61.2018 153.007 61.6048 151.038 62.0558 149.087L61.0815 148.862C61.5396 146.88 62.0468 144.918 62.6017 142.975L63.5632 143.25C64.1169 141.311 64.7185 139.393 65.3667 137.497L64.4204 137.173C65.0775 135.25 65.7822 133.35 66.5328 131.472L67.4614 131.843C68.2092 129.973 69.0031 128.126 69.8417 126.304L68.9333 125.886C69.7823 124.041 70.6766 122.222 71.615 120.429L72.501 120.893C73.4345 119.109 74.4119 117.353 75.4318 115.624L74.5705 115.116C75.6016 113.368 76.6758 111.648 77.7916 109.959L78.626 110.51C79.7347 108.831 80.8848 107.182 82.0749 105.564L81.2693 104.971C82.4711 103.337 83.7133 101.735 84.9945 100.166L85.7691 100.798C87.0409 99.2401 88.3513 97.7151 89.699 96.2243L88.9572 95.5537C90.3168 94.0498 91.7139 92.5804 93.1472 91.1472L93.8543 91.8543C95.2757 90.4329 96.7328 89.0473 98.2243 87.699L97.5537 86.9572C99.0569 85.5983 100.595 84.2769 102.166 82.9945L102.798 83.7691C104.354 82.4986 105.943 81.2667 107.564 80.0749L106.971 79.2693C108.603 78.0693 110.266 76.9095 111.959 75.7916L112.51 76.626C114.185 75.5196 115.89 74.4543 117.624 73.4318L117.116 72.5705C118.859 71.542 120.631 70.5564 122.429 69.615L122.893 70.501C124.671 69.5705 126.475 68.6836 128.304 67.8417L127.886 66.9333C129.723 66.0876 131.586 65.287 133.472 64.5328L133.843 65.4614C135.705 64.717 137.59 64.0183 139.497 63.3667L139.173 62.4204C141.086 61.7667 143.02 61.1601 144.975 60.6017L145.25 61.5632C147.176 61.013 149.122 60.5101 151.087 60.0558L150.862 59.0815C152.829 58.6267 154.815 58.2202 156.819 57.8635L156.994 58.848C158.964 58.497 160.952 58.1946 162.955 57.9419L162.829 56.9498C164.831 56.6973 166.848 56.4941 168.879 56.3415L168.954 57.3387C170.948 57.1888 172.956 57.0881 174.976 57.0377L174.951 56.038C175.964 56.0127 176.981 56 178 56V57C179.011 57 180.019 57.0126 181.024 57.0377L181.049 56.038C183.086 56.0888 185.111 56.1904 187.121 56.3415L187.046 57.3387C189.06 57.49 191.061 57.6915 193.045 57.9419L193.171 56.9498C195.19 57.2046 197.194 57.5096 199.181 57.8635L199.006 58.848C200.993 59.2018 202.962 59.6048 204.913 60.0558L205.138 59.0815C207.12 59.5396 209.082 60.0468 211.025 60.6017L210.75 61.5632C212.689 62.1169 214.607 62.7185 216.503 63.3667L216.827 62.4204C218.75 63.0775 220.65 63.7822 222.528 64.5328L222.157 65.4614C224.027 66.2092 225.874 67.0031 227.696 67.8417L228.114 66.9333C229.959 67.7823 231.778 68.6766 233.571 69.615L233.107 70.501C234.891 71.4345 236.647 72.4119 238.376 73.4318L238.884 72.5705C240.632 73.6016 242.352 74.6758 244.041 75.7916L243.49 76.626C245.169 77.7347 246.818 78.8848 248.436 80.0749L249.029 79.2693C250.663 80.4711 252.265 81.7133 253.834 82.9945L253.202 83.7691C254.76 85.0409 256.285 86.3513 257.776 87.699L258.446 86.9572C259.95 88.3168 261.42 89.7139 262.853 91.1472L262.146 91.8543C263.567 93.2757 264.953 94.7328 266.301 96.2243L267.043 95.5537C268.402 97.0569 269.723 98.5947 271.006 100.166L270.231 100.798C271.501 102.354 272.733 103.943 273.925 105.564L274.731 104.971C275.931 106.603 277.09 108.266 278.208 109.959L277.374 110.51C278.48 112.185 279.546 113.89 280.568 115.624L281.429 115.116C282.458 116.859 283.444 118.631 284.385 120.429L283.499 120.893C284.43 122.671 285.316 124.475 286.158 126.304L287.067 125.886C287.912 127.723 288.713 129.586 289.467 131.472L288.539 131.843C289.283 133.705 289.982 135.59 290.633 137.497L291.58 137.173C292.233 139.086 292.84 141.02 293.398 142.975L292.437 143.25C292.987 145.176 293.49 147.122 293.944 149.087L294.918 148.862C295.373 150.829 295.78 152.815 296.137 154.819L295.152 154.994C295.503 156.964 295.805 158.952 296.058 160.955L297.05 160.829C297.303 162.831 297.506 164.848 297.659 166.879L296.661 166.954C296.811 168.948 296.912 170.956 296.962 172.976L297.962 172.951C297.987 173.964 298 174.981 298 176H297C297 177.011 296.987 178.019 296.962 179.024L297.962 179.049C297.911 181.086 297.81 183.111 297.659 185.121L296.661 185.046C296.51 187.06 296.308 189.061 296.058 191.045L297.05 191.171C296.795 193.19 296.49 195.194 296.137 197.181L295.152 197.006C294.798 198.993 294.395 200.962 293.944 202.913L294.918 203.138C294.46 205.12 293.953 207.082 293.398 209.025L292.437 208.75C291.883 210.689 291.281 212.607 290.633 214.503L291.58 214.827C290.922 216.75 290.218 218.65 289.467 220.528L288.539 220.157C287.791 222.027 286.997 223.874 286.158 225.696L287.067 226.114C286.218 227.959 285.323 229.778 284.385 231.571L283.499 231.107C282.566 232.891 281.588 234.647 280.568 236.376L281.429 236.884C280.398 238.632 279.324 240.352 278.208 242.041L277.374 241.49C276.265 243.169 275.115 244.818 273.925 246.436L274.731 247.029C273.529 248.663 272.287 250.265 271.006 251.834L270.231 251.202C268.959 252.76 267.649 254.285 266.301 255.776L267.043 256.446C265.683 257.95 264.286 259.42 262.853 260.853L262.146 260.146C260.724 261.567 259.267 262.953 257.776 264.301L258.446 265.043C256.943 266.402 255.405 267.723 253.834 269.006L253.202 268.231C251.646 269.501 250.057 270.733 248.436 271.925L249.029 272.731C247.397 273.931 245.734 275.09 244.041 276.208L243.49 275.374C241.815 276.48 240.11 277.546 238.376 278.568L238.884 279.429C237.141 280.458 235.369 281.444 233.571 282.385L233.107 281.499C231.329 282.43 229.525 283.316 227.696 284.158L228.114 285.067C226.277 285.912 224.414 286.713 222.528 287.467L222.157 286.539C220.295 287.283 218.41 287.982 216.503 288.633L216.827 289.58C214.914 290.233 212.98 290.84 211.025 291.398L210.75 290.437C208.824 290.987 206.878 291.49 204.913 291.944L205.138 292.918C203.171 293.373 201.185 293.78 199.181 294.137L199.006 293.152C197.036 293.503 195.048 293.805 193.045 294.058L193.171 295.05C191.169 295.303 189.152 295.506 187.121 295.659L187.046 294.661C185.052 294.811 183.044 294.912 181.024 294.962L181.049 295.962C180.036 295.987 179.019 296 178 296V295Z" stroke="#C3F3BB" stroke-width="2" stroke-linejoin="bevel" stroke-dasharray="6"/>
</g>
<g filter="url(#filter1_d)">
<path d="M171.5 256C171.34 256 171.18 256 171.021 255.999L171.014 256.999C168.411 256.983 165.837 256.838 163.3 256.571L163.405 255.577C163.087 255.543 162.77 255.508 162.454 255.471L162.337 256.464C159.757 256.16 157.215 255.729 154.719 255.178L154.934 254.202C154.623 254.133 154.313 254.063 154.004 253.99L153.776 254.964C151.251 254.373 148.774 253.659 146.351 252.828L146.675 251.882C146.375 251.779 146.075 251.674 145.776 251.568L145.44 252.509C143.002 251.639 140.621 250.65 138.302 249.55L138.731 248.647C138.444 248.51 138.158 248.372 137.872 248.232L137.432 249.13C135.111 247.992 132.856 246.742 130.673 245.386L131.2 244.537C130.93 244.369 130.661 244.2 130.393 244.028L129.855 244.871C127.679 243.482 125.577 241.988 123.557 240.395L124.176 239.61C123.926 239.413 123.678 239.214 123.431 239.014L122.802 239.792C120.797 238.171 118.874 236.451 117.042 234.641L117.745 233.93C117.518 233.706 117.294 233.482 117.07 233.255L116.359 233.958C114.549 232.126 112.829 230.203 111.208 228.198L111.986 227.569C111.786 227.322 111.587 227.074 111.39 226.824L110.605 227.443C109.012 225.423 107.518 223.321 106.129 221.145L106.972 220.607C106.8 220.339 106.631 220.07 106.463 219.8L105.614 220.327C104.258 218.144 103.008 215.889 101.87 213.568L102.768 213.128C102.628 212.842 102.49 212.556 102.353 212.269L101.45 212.698C100.35 210.379 99.3607 207.998 98.4905 205.56L99.4323 205.224C99.3256 204.925 99.2207 204.625 99.1177 204.325L98.1717 204.649C97.3409 202.226 96.6267 199.749 96.036 197.224L97.0098 196.996C96.9374 196.687 96.8669 196.377 96.7982 196.066L95.8217 196.281C95.2706 193.785 94.8399 191.243 94.536 188.663L95.5291 188.546C95.4919 188.23 95.4565 187.913 95.4232 187.595L94.4286 187.7C94.1619 185.163 94.0175 182.589 94.0015 179.986L95.0015 179.979C95.0005 179.82 95 179.66 95 179.5C95 179.34 95.0005 179.18 95.0015 179.021L94.0015 179.014C94.0175 176.411 94.1619 173.837 94.4286 171.3L95.4232 171.405C95.4565 171.087 95.4919 170.77 95.5291 170.454L94.536 170.337C94.8399 167.757 95.2706 165.215 95.8217 162.719L96.7982 162.934C96.8668 162.623 96.9374 162.313 97.0098 162.004L96.036 161.776C96.6267 159.251 97.3409 156.774 98.1717 154.351L99.1177 154.675C99.2207 154.375 99.3256 154.075 99.4323 153.776L98.4905 153.44C99.3607 151.002 100.35 148.621 101.45 146.302L102.353 146.731C102.49 146.444 102.628 146.158 102.768 145.872L101.87 145.432C103.008 143.111 104.258 140.856 105.614 138.673L106.463 139.2C106.631 138.93 106.8 138.661 106.972 138.393L106.129 137.855C107.518 135.679 109.012 133.577 110.605 131.557L111.39 132.176C111.587 131.926 111.786 131.678 111.986 131.431L111.208 130.802C112.829 128.797 114.549 126.874 116.359 125.042L117.07 125.745C117.294 125.518 117.518 125.294 117.745 125.07L117.042 124.359C118.874 122.549 120.797 120.829 122.802 119.208L123.431 119.986C123.678 119.786 123.926 119.587 124.176 119.39L123.557 118.605C125.577 117.012 127.679 115.518 129.855 114.129L130.393 114.972C130.661 114.8 130.93 114.631 131.2 114.463L130.673 113.614C132.856 112.258 135.111 111.008 137.432 109.87L137.872 110.768C138.158 110.628 138.444 110.49 138.731 110.353L138.302 109.45C140.621 108.35 143.002 107.361 145.44 106.491L145.776 107.432C146.075 107.326 146.375 107.221 146.675 107.118L146.351 106.172C148.774 105.341 151.251 104.627 153.776 104.036L154.004 105.01C154.313 104.937 154.623 104.867 154.934 104.798L154.719 103.822C157.215 103.271 159.757 102.84 162.337 102.536L162.454 103.529C162.77 103.492 163.087 103.457 163.405 103.423L163.3 102.429C165.837 102.162 168.411 102.017 171.014 102.001L171.021 103.001C171.18 103 171.34 103 171.5 103C171.66 103 171.82 103 171.979 103.001L171.986 102.001C174.589 102.017 177.163 102.162 179.7 102.429L179.595 103.423C179.913 103.457 180.23 103.492 180.546 103.529L180.663 102.536C183.243 102.84 185.785 103.271 188.281 103.822L188.066 104.798C188.377 104.867 188.687 104.937 188.996 105.01L189.224 104.036C191.749 104.627 194.226 105.341 196.649 106.172L196.325 107.118C196.625 107.221 196.925 107.326 197.224 107.432L197.56 106.491C199.998 107.361 202.379 108.35 204.698 109.45L204.269 110.353C204.556 110.49 204.842 110.628 205.128 110.768L205.568 109.87C207.889 111.008 210.144 112.258 212.327 113.614L211.8 114.463C212.07 114.631 212.339 114.8 212.607 114.972L213.145 114.129C215.321 115.518 217.423 117.012 219.443 118.605L218.824 119.39C219.074 119.587 219.322 119.786 219.569 119.986L220.198 119.208C222.203 120.829 224.126 122.549 225.958 124.359L225.255 125.07C225.482 125.294 225.706 125.518 225.93 125.745L226.641 125.042C228.451 126.874 230.171 128.797 231.792 130.802L231.014 131.431C231.214 131.678 231.413 131.926 231.61 132.176L232.395 131.557C233.988 133.577 235.482 135.679 236.871 137.855L236.028 138.393C236.2 138.661 236.369 138.93 236.537 139.2L237.386 138.673C238.742 140.856 239.992 143.111 241.13 145.432L240.232 145.872C240.372 146.158 240.51 146.444 240.647 146.731L241.55 146.302C242.65 148.621 243.639 151.002 244.509 153.44L243.568 153.776C243.674 154.075 243.779 154.375 243.882 154.675L244.828 154.351C245.659 156.774 246.373 159.251 246.964 161.776L245.99 162.004C246.063 162.313 246.133 162.623 246.202 162.934L247.178 162.719C247.729 165.215 248.16 167.757 248.464 170.337L247.471 170.454C247.508 170.77 247.543 171.087 247.577 171.405L248.571 171.3C248.838 173.837 248.983 176.411 248.999 179.014L247.999 179.021C248 179.18 248 179.34 248 179.5C248 179.66 248 179.82 247.999 179.979L248.999 179.986C248.983 182.589 248.838 185.163 248.571 187.7L247.577 187.595C247.543 187.913 247.508 188.23 247.471 188.546L248.464 188.663C248.16 191.243 247.729 193.785 247.178 196.281L246.202 196.066C246.133 196.377 246.063 196.687 245.99 196.996L246.964 197.224C246.373 199.749 245.659 202.226 244.828 204.649L243.882 204.325C243.779 204.625 243.674 204.925 243.568 205.224L244.509 205.56C243.639 207.998 242.65 210.379 241.55 212.698L240.647 212.269C240.51 212.556 240.372 212.842 240.232 213.128L241.13 213.568C239.992 215.889 238.742 218.144 237.386 220.327L236.537 219.8C236.369 220.07 236.2 220.339 236.028 220.607L236.871 221.145C235.482 223.321 233.988 225.423 232.395 227.443L231.61 226.824C231.413 227.074 231.214 227.322 231.014 227.569L231.792 228.198C230.171 230.203 228.451 232.126 226.641 233.958L225.93 233.255C225.706 233.482 225.482 233.706 225.255 233.93L225.958 234.641C224.126 236.451 222.203 238.171 220.198 239.792L219.569 239.014C219.322 239.214 219.074 239.413 218.824 239.61L219.443 240.395C217.423 241.988 215.321 243.482 213.145 244.871L212.607 244.028C212.339 244.2 212.07 244.369 211.8 244.537L212.327 245.386C210.144 246.742 207.889 247.992 205.568 249.13L205.128 248.232C204.842 248.372 204.556 248.51 204.269 248.647L204.698 249.55C202.379 250.65 199.998 251.639 197.56 252.509L197.224 251.568C196.925 251.674 196.625 251.779 196.325 251.882L196.649 252.828C194.226 253.659 191.749 254.373 189.224 254.964L188.996 253.99C188.687 254.063 188.377 254.133 188.066 254.202L188.281 255.178C185.785 255.729 183.243 256.16 180.663 256.464L180.546 255.471C180.23 255.508 179.913 255.543 179.595 255.577L179.7 256.571C177.163 256.838 174.589 256.983 171.986 256.999L171.979 255.999C171.82 256 171.66 256 171.5 256Z" stroke="#BCF3BB" stroke-width="2" stroke-linejoin="bevel" stroke-dasharray="1 8"/>
</g>
<g filter="url(#filter2_d)">
<path d="M178.5 341C178.333 341 178.166 341 177.998 340.999L177.995 341.999C175.978 341.993 173.968 341.951 171.968 341.873L172.007 340.874C171.675 340.861 171.344 340.848 171.013 340.833L170.969 341.832C168.953 341.741 166.948 341.615 164.952 341.453L165.033 340.457C164.702 340.43 164.371 340.402 164.04 340.373L163.953 341.37C161.946 341.195 159.949 340.984 157.963 340.738L158.086 339.746C157.756 339.705 157.426 339.663 157.096 339.62L156.967 340.612C154.971 340.353 152.985 340.058 151.012 339.728L151.177 338.741C150.848 338.686 150.52 338.631 150.192 338.574L150.021 339.559C148.039 339.215 146.069 338.836 144.111 338.422L144.318 337.444C143.992 337.375 143.666 337.305 143.34 337.234L143.127 338.211C141.162 337.784 139.21 337.321 137.272 336.824L137.52 335.855C137.197 335.772 136.875 335.689 136.552 335.604L136.298 336.571C134.352 336.059 132.419 335.513 130.502 334.933L130.791 333.975C130.473 333.879 130.156 333.782 129.839 333.684L129.544 334.64C127.621 334.045 125.713 333.416 123.82 332.754L124.15 331.81C123.837 331.7 123.524 331.59 123.211 331.478L122.875 332.42C120.98 331.744 119.101 331.034 117.239 330.292L117.609 329.363C117.447 329.298 117.285 329.233 117.123 329.168C116.976 329.109 116.83 329.05 116.684 328.991L116.308 329.917C114.445 329.161 112.598 328.372 110.77 327.551L111.179 326.639C110.876 326.502 110.573 326.365 110.27 326.227L109.855 327.137C108.026 326.302 106.216 325.435 104.423 324.537L104.872 323.643C104.574 323.494 104.277 323.344 103.981 323.193L103.527 324.084C101.736 323.172 99.9641 322.229 98.2116 321.255L98.6974 320.381C98.4065 320.219 98.1161 320.057 97.8262 319.893L97.3351 320.764C95.585 319.778 93.8547 318.76 92.1448 317.712L92.6674 316.859C92.3835 316.686 92.1002 316.511 91.8175 316.335L91.2899 317.185C89.5834 316.124 87.8976 315.034 86.2333 313.914L86.7915 313.085C86.5154 312.899 86.24 312.713 85.9651 312.525L85.4019 313.351C83.7418 312.22 82.1033 311.059 80.4873 309.869L81.0801 309.064C80.8124 308.867 80.5453 308.669 80.2788 308.47L79.6811 309.272C78.0705 308.072 76.4826 306.842 74.9179 305.585L75.5442 304.806C75.285 304.597 75.0264 304.388 74.7685 304.178L74.1375 304.954C72.5795 303.687 71.045 302.392 69.5347 301.07L70.1934 300.317C69.9431 300.098 69.6936 299.878 69.4447 299.658L68.7815 300.406C67.2786 299.074 65.8002 297.716 64.347 296.331L65.0368 295.607C64.796 295.377 64.5559 295.147 64.3165 294.916L63.6223 295.636C62.1773 294.242 60.7575 292.823 59.3638 291.378L60.0836 290.683C59.8527 290.444 59.6225 290.204 59.393 289.963L58.6691 290.653C57.2843 289.2 55.9256 287.721 54.5939 286.219L55.3423 285.555C55.1218 285.306 54.9019 285.057 54.6829 284.807L53.9305 285.465C52.6083 283.955 51.3132 282.421 50.0458 280.862L50.8216 280.231C50.6118 279.974 50.4027 279.715 50.1945 279.456L49.4149 280.082C48.1578 278.517 46.9285 276.929 45.7278 275.319L46.5296 274.721C46.3309 274.455 46.133 274.188 45.936 273.92L45.1306 274.513C43.941 272.897 42.7801 271.258 41.6485 269.598L42.4748 269.035C42.2875 268.76 42.101 268.485 41.9152 268.208L41.0855 268.767C39.9658 267.102 38.8755 265.417 37.8154 263.71L38.6649 263.182C38.4893 262.9 38.3145 262.617 38.1406 262.333L37.2879 262.855C36.2401 261.145 35.2224 259.415 34.2357 257.665L35.1068 257.174C34.9433 256.884 34.7808 256.594 34.6191 256.303L33.745 256.788C32.7709 255.036 31.8277 253.264 30.9161 251.473L31.8073 251.019C31.6564 250.723 31.5063 250.426 31.3572 250.128L30.4633 250.577C29.5647 248.784 28.6977 246.974 27.8631 245.145L28.7728 244.73C28.6347 244.427 28.4976 244.124 28.3613 243.821L27.449 244.23C26.6277 242.402 25.8387 240.555 25.0826 238.692L26.0092 238.316C25.8843 238.008 25.7602 237.7 25.6371 237.391L24.7082 237.761C23.9658 235.899 23.2562 234.02 22.5801 232.125L23.522 231.789C23.4104 231.476 23.2997 231.163 23.19 230.85L22.2461 231.18C21.5839 229.288 20.9551 227.379 20.3604 225.456L21.3158 225.161C21.2178 224.844 21.1207 224.527 21.0246 224.209L20.0675 224.499C19.4873 222.581 18.9409 220.648 18.4291 218.702L19.3962 218.448C19.3115 218.125 19.2278 217.803 19.145 217.48L18.1763 217.728C17.6793 215.79 17.2165 213.838 16.7886 211.873L17.7657 211.66C17.6949 211.334 17.625 211.008 17.556 210.682L16.5776 210.889C16.1639 208.932 15.7849 206.961 15.4411 204.979L16.4264 204.808C16.3695 204.48 16.3136 204.152 16.2586 203.823L15.2723 203.988C14.9424 202.015 14.6475 200.029 14.3881 198.033L15.3797 197.904C15.3369 197.575 15.2951 197.245 15.2542 196.914L14.2618 197.037C14.0159 195.051 13.8053 193.054 13.6305 191.047L14.6267 190.96C14.5979 190.629 14.5701 190.298 14.5433 189.967L13.5466 190.048C13.3849 188.052 13.2586 186.047 13.1683 184.032L14.1673 183.987C14.1525 183.656 14.1387 183.325 14.1258 182.993L13.1266 183.032C13.0489 181.032 13.0068 179.023 13.0008 177.005L14.0007 177.002C14.0002 176.835 14 176.667 14 176.5C14 176.333 14.0002 176.166 14.0007 175.998L13.0008 175.995C13.0068 173.978 13.0489 171.968 13.1265 169.968L14.1258 170.007C14.1387 169.675 14.1525 169.344 14.1673 169.013L13.1683 168.969C13.2586 166.954 13.3849 164.948 13.5465 162.952L14.5433 163.033C14.5701 162.702 14.5979 162.371 14.6267 162.04L13.6305 161.953C13.8053 159.946 14.0159 157.949 14.2617 155.963L15.2542 156.086C15.295 155.756 15.3369 155.426 15.3797 155.096L14.3881 154.967C14.6475 152.971 14.9424 150.985 15.2723 149.012L16.2586 149.177C16.3136 148.848 16.3695 148.52 16.4263 148.192L15.4411 148.021C15.7849 146.039 16.1639 144.069 16.5776 142.111L17.556 142.318C17.6249 141.992 17.6948 141.666 17.7657 141.34L16.7886 141.127C17.2165 139.162 17.6793 137.21 18.1763 135.272L19.145 135.52C19.2278 135.197 19.3115 134.875 19.3962 134.552L18.4291 134.298C18.9409 132.352 19.4872 130.419 20.0674 128.502L21.0246 128.791C21.1207 128.473 21.2178 128.156 21.3157 127.839L20.3604 127.544C20.9551 125.621 21.5839 123.713 22.2461 121.82L23.19 122.15C23.2997 121.837 23.4104 121.524 23.5219 121.211L22.5801 120.875C23.2561 118.98 23.9657 117.101 24.7082 115.239L25.6371 115.609C25.7602 115.3 25.8843 114.992 26.0092 114.684L25.0826 114.308C25.8387 112.445 26.6277 110.598 27.449 108.77L28.3613 109.179C28.4975 108.876 28.6347 108.573 28.7728 108.27L27.863 107.855C28.6977 106.026 29.5647 104.216 30.4632 102.423L31.3572 102.872C31.5063 102.574 31.6564 102.277 31.8072 101.981L30.9161 101.527C31.8276 99.7362 32.7709 97.9641 33.745 96.2116L34.6191 96.6974C34.7808 96.4065 34.9433 96.1161 35.1068 95.8262L34.2357 95.3351C35.2224 93.585 36.2401 91.8547 37.2879 90.1448L38.1405 90.6674C38.3145 90.3835 38.4893 90.1002 38.6649 89.8175L37.8155 89.2899C38.8755 87.5834 39.9658 85.8976 41.0855 84.2333L41.9152 84.7915C42.101 84.5154 42.2875 84.24 42.4748 83.9651L41.6485 83.4019C42.7801 81.7418 43.941 80.1033 45.1306 78.4873L45.936 79.0801C46.1331 78.8124 46.3309 78.5453 46.5296 78.2788L45.7278 77.6811C46.9285 76.0705 48.1578 74.4826 49.4149 72.9179L50.1945 73.5442C50.4028 73.285 50.6118 73.0264 50.8216 72.7685L50.0459 72.1375C51.3132 70.5795 52.6083 69.045 53.9305 67.5347L54.6829 68.1934C54.902 67.9431 55.1218 67.6936 55.3424 67.4447L54.5939 66.7815C55.9257 65.2786 57.2843 63.8002 58.6691 62.347L59.3931 63.0368C59.6225 62.796 59.8527 62.5559 60.0836 62.3165L59.3638 61.6223C60.7575 60.1773 62.1773 58.7575 63.6224 57.3638L64.3166 58.0836C64.556 57.8527 64.7961 57.6225 65.0369 57.393L64.347 56.6691C65.8003 55.2843 67.2787 53.9256 68.7815 52.5939L69.4447 53.3423C69.6936 53.1218 69.9432 52.9019 70.1934 52.6829L69.5347 51.9305C71.045 50.6083 72.5795 49.3132 74.1375 48.0458L74.7685 48.8216C75.0265 48.6118 75.2851 48.4027 75.5443 48.1945L74.9179 47.4149C76.4826 46.1578 78.0706 44.9285 79.6812 43.7278L80.2788 44.5296C80.5453 44.3309 80.8124 44.133 81.0801 43.936L80.4873 43.1306C82.1033 41.941 83.7418 40.7801 85.4019 39.6485L85.9651 40.4748C86.24 40.2875 86.5154 40.101 86.7915 39.9152L86.2333 39.0855C87.8976 37.9658 89.5834 36.8755 91.2899 35.8154L91.8176 36.6649C92.1002 36.4893 92.3835 36.3145 92.6673 36.1406L92.1448 35.2879C93.8547 34.2401 95.585 33.2224 97.3351 32.2357L97.8262 33.1068C98.1161 32.9433 98.4064 32.7808 98.6974 32.6191L98.2115 31.745C99.9641 30.7709 101.736 29.8277 103.527 28.9161L103.981 29.8073C104.277 29.6564 104.574 29.5063 104.872 29.3572L104.423 28.4633C106.216 27.5647 108.026 26.6977 109.855 25.8631L110.27 26.7728C110.573 26.6347 110.876 26.4976 111.179 26.3613L110.77 25.449C112.598 24.6277 114.445 23.8387 116.308 23.0826L116.684 24.0092C116.992 23.8843 117.3 23.7602 117.609 23.6371L117.239 22.7082C119.101 21.9658 120.98 21.2562 122.875 20.5801L123.211 21.522C123.524 21.4104 123.837 21.2997 124.15 21.19L123.82 20.2461C125.712 19.5839 127.621 18.9551 129.544 18.3604L129.839 19.3158C130.156 19.2178 130.473 19.1207 130.791 19.0246L130.501 18.0675C132.419 17.4873 134.352 16.9409 136.298 16.4291L136.552 17.3962C136.875 17.3115 137.197 17.2278 137.52 17.145L137.272 16.1763C139.21 15.6793 141.162 15.2165 143.127 14.7886L143.34 15.7657C143.666 15.6949 143.992 15.625 144.318 15.556L144.111 14.5776C146.068 14.1639 148.039 13.7849 150.021 13.4411L150.192 14.4264C150.52 14.3695 150.848 14.3136 151.177 14.2586L151.012 13.2723C152.985 12.9424 154.971 12.6475 156.967 12.3881L157.096 13.3797C157.425 13.3369 157.755 13.2951 158.086 13.2542L157.963 12.2618C159.949 12.0159 161.946 11.8053 163.953 11.6305L164.04 12.6267C164.371 12.5979 164.702 12.5701 165.033 12.5433L164.952 11.5466C166.948 11.3849 168.953 11.2586 170.968 11.1683L171.013 12.1673C171.344 12.1525 171.675 12.1387 172.007 12.1258L171.968 11.1266C173.968 11.0489 175.977 11.0068 177.995 11.0008L177.998 12.0007C178.165 12.0002 178.333 12 178.5 12C178.667 12 178.834 12.0002 179.002 12.0007L179.005 11.0008C181.022 11.0068 183.032 11.0489 185.032 11.1265L184.993 12.1258C185.325 12.1387 185.656 12.1525 185.987 12.1673L186.031 11.1683C188.046 11.2586 190.052 11.3849 192.048 11.5465L191.967 12.5433C192.298 12.5701 192.629 12.5979 192.96 12.6267L193.047 11.6305C195.054 11.8053 197.051 12.0159 199.037 12.2617L198.914 13.2542C199.244 13.295 199.574 13.3369 199.904 13.3797L200.033 12.3881C202.029 12.6475 204.015 12.9424 205.988 13.2723L205.823 14.2586C206.152 14.3136 206.48 14.3695 206.808 14.4263L206.979 13.4411C208.961 13.7849 210.931 14.1639 212.889 14.5776L212.682 15.556C213.008 15.6249 213.334 15.6948 213.66 15.7657L213.873 14.7886C215.838 15.2165 217.79 15.6793 219.728 16.1763L219.48 17.145C219.803 17.2277 220.125 17.3115 220.448 17.3962L220.702 16.4291C222.648 16.9409 224.581 17.4872 226.498 18.0674L226.209 19.0246C226.527 19.1207 226.844 19.2178 227.161 19.3157L227.456 18.3604C229.379 18.9551 231.287 19.5839 233.18 20.2461L232.85 21.19C233.163 21.2997 233.476 21.4104 233.789 21.5219L234.125 20.5801C236.02 21.2561 237.899 21.9657 239.761 22.7082L239.391 23.6371C239.7 23.7602 240.008 23.8843 240.316 24.0092L240.692 23.0826C242.555 23.8387 244.402 24.6277 246.23 25.449L245.821 26.3612C246.124 26.4975 246.427 26.6347 246.73 26.7728L247.145 25.863C248.974 26.6977 250.784 27.5647 252.577 28.4632L252.128 29.3572C252.426 29.5063 252.723 29.6563 253.019 29.8072L253.473 28.9161C255.264 29.8276 257.036 30.7709 258.788 31.745L258.303 32.619C258.594 32.7808 258.884 32.9433 259.174 33.1068L259.665 32.2357C261.415 33.2224 263.145 34.2401 264.855 35.2879L264.333 36.1405C264.616 36.3145 264.9 36.4893 265.182 36.6649L265.71 35.8154C267.417 36.8755 269.102 37.9658 270.767 39.0855L270.209 39.9152C270.485 40.101 270.76 40.2875 271.035 40.4748L271.598 39.6485C273.258 40.7801 274.897 41.941 276.513 43.1306L275.92 43.936C276.188 44.133 276.455 44.3309 276.721 44.5296L277.319 43.7278C278.929 44.9285 280.517 46.1578 282.082 47.4149L281.456 48.1945C281.715 48.4028 281.974 48.6118 282.231 48.8216L282.863 48.0459C284.421 49.3132 285.955 50.6083 287.465 51.9305L286.807 52.6829C287.057 52.902 287.306 53.1218 287.555 53.3424L288.219 52.5939C289.721 53.9257 291.2 55.2843 292.653 56.6691L291.963 57.3931C292.204 57.6225 292.444 57.8527 292.683 58.0836L293.378 57.3638C294.823 58.7575 296.242 60.1773 297.636 61.6224L296.916 62.3166C297.147 62.556 297.378 62.7961 297.607 63.0369L298.331 62.347C299.716 63.8003 301.074 65.2787 302.406 66.7815L301.658 67.4447C301.878 67.6936 302.098 67.9432 302.317 68.1934L303.07 67.5347C304.392 69.045 305.687 70.5795 306.954 72.1375L306.178 72.7685C306.388 73.0265 306.597 73.285 306.806 73.5443L307.585 72.9179C308.842 74.4826 310.072 76.0706 311.272 77.6811L310.47 78.2788C310.669 78.5453 310.867 78.8124 311.064 79.0801L311.869 78.4873C313.059 80.1033 314.22 81.7418 315.351 83.4019L314.525 83.9651C314.712 84.24 314.899 84.5154 315.085 84.7915L315.914 84.2333C317.034 85.8976 318.124 87.5834 319.185 89.2898L318.335 89.8175C318.511 90.1002 318.685 90.3835 318.859 90.6673L319.712 90.1448C320.76 91.8546 321.778 93.585 322.764 95.3351L321.893 95.8262C321.973 95.9681 322.053 96.1102 322.133 96.2524C322.216 96.4006 322.298 96.5489 322.381 96.6974L323.255 96.2115C324.229 97.9641 325.172 99.7361 326.084 101.527L325.193 101.981C325.344 102.277 325.494 102.574 325.643 102.872L326.537 102.423C327.435 104.216 328.302 106.026 329.137 107.855L328.227 108.27C328.365 108.573 328.502 108.876 328.639 109.179L329.551 108.769C330.372 110.598 331.161 112.445 331.917 114.308L330.991 114.684C331.116 114.992 331.24 115.3 331.363 115.609L332.292 115.239C333.034 117.101 333.744 118.98 334.42 120.875L333.478 121.211C333.59 121.524 333.7 121.837 333.81 122.15L334.754 121.82C335.416 123.712 336.045 125.621 336.64 127.544L335.684 127.839C335.782 128.156 335.879 128.473 335.975 128.791L336.933 128.501C337.513 130.419 338.059 132.352 338.571 134.298L337.604 134.552C337.688 134.874 337.772 135.197 337.855 135.52L338.824 135.272C339.321 137.21 339.783 139.162 340.211 141.127L339.234 141.34C339.305 141.666 339.375 141.992 339.444 142.318L340.422 142.111C340.836 144.068 341.215 146.039 341.559 148.021L340.574 148.192C340.631 148.52 340.686 148.848 340.741 149.177L341.728 149.012C342.058 150.985 342.353 152.971 342.612 154.967L341.62 155.096C341.663 155.425 341.705 155.755 341.746 156.086L342.738 155.963C342.984 157.949 343.195 159.946 343.37 161.953L342.373 162.04C342.402 162.371 342.43 162.702 342.457 163.033L343.453 162.952C343.615 164.948 343.741 166.953 343.832 168.968L342.833 169.013C342.848 169.344 342.861 169.675 342.874 170.007L343.873 169.968C343.951 171.968 343.993 173.977 343.999 175.995L342.999 175.998C343 176.165 343 176.333 343 176.5C343 176.667 343 176.834 342.999 177.002L343.999 177.005C343.993 179.022 343.951 181.032 343.873 183.032L342.874 182.993C342.861 183.325 342.848 183.656 342.833 183.987L343.832 184.031C343.741 186.047 343.615 188.052 343.453 190.048L342.457 189.967C342.43 190.298 342.402 190.629 342.373 190.96L343.37 191.047C343.195 193.054 342.984 195.051 342.738 197.037L341.746 196.914C341.705 197.244 341.663 197.574 341.62 197.904L342.612 198.033C342.353 200.029 342.058 202.015 341.728 203.988L340.741 203.823C340.686 204.152 340.631 204.48 340.574 204.808L341.559 204.979C341.215 206.961 340.836 208.931 340.422 210.889L339.444 210.682C339.375 211.008 339.305 211.334 339.234 211.66L340.211 211.873C339.784 213.838 339.321 215.79 338.824 217.728L337.855 217.48C337.772 217.803 337.689 218.125 337.604 218.448L338.571 218.702C338.059 220.648 337.513 222.581 336.933 224.498L335.975 224.209C335.879 224.527 335.782 224.844 335.684 225.161L336.64 225.456C336.045 227.379 335.416 229.287 334.754 231.18L333.81 230.85L333.747 231.03C333.658 231.284 333.568 231.536 333.478 231.789L334.42 232.125C333.744 234.02 333.034 235.899 332.292 237.761L331.363 237.391C331.24 237.7 331.116 238.008 330.991 238.316L331.917 238.692C331.161 240.555 330.372 242.402 329.551 244.23L328.639 243.821C328.502 244.124 328.365 244.427 328.227 244.73L329.137 245.145C328.302 246.974 327.435 248.784 326.537 250.577L325.643 250.128C325.494 250.426 325.344 250.723 325.193 251.019L326.084 251.473C325.172 253.264 324.229 255.036 323.255 256.788L322.381 256.303C322.219 256.594 322.057 256.884 321.893 257.174L322.764 257.665C321.778 259.415 320.76 261.145 319.712 262.855L318.859 262.333C318.686 262.616 318.511 262.9 318.335 263.182L319.185 263.71C318.124 265.417 317.034 267.102 315.914 268.767L315.085 268.209C314.899 268.485 314.713 268.76 314.525 269.035L315.351 269.598C314.22 271.258 313.059 272.897 311.869 274.513L311.064 273.92C310.867 274.188 310.669 274.455 310.47 274.721L311.272 275.319C310.072 276.929 308.842 278.517 307.585 280.082L306.806 279.456C306.597 279.715 306.388 279.974 306.178 280.231L306.954 280.863C305.687 282.421 304.392 283.955 303.07 285.465L302.317 284.807C302.098 285.057 301.878 285.306 301.658 285.555L302.406 286.219C301.074 287.721 299.716 289.2 298.331 290.653L297.607 289.963C297.377 290.204 297.147 290.444 296.916 290.683L297.636 291.378C296.242 292.823 294.823 294.242 293.378 295.636L292.683 294.916C292.444 295.147 292.204 295.378 291.963 295.607L292.653 296.331C291.2 297.716 289.721 299.074 288.219 300.406L287.555 299.658C287.306 299.878 287.057 300.098 286.807 300.317L287.465 301.07C285.955 302.392 284.421 303.687 282.862 304.954L282.231 304.178C281.974 304.388 281.715 304.597 281.456 304.806L282.082 305.585C280.517 306.842 278.929 308.072 277.319 309.272L276.721 308.47C276.455 308.669 276.188 308.867 275.92 309.064L276.513 309.869C274.897 311.059 273.258 312.22 271.598 313.351L271.035 312.525C270.925 312.6 270.814 312.675 270.704 312.75C270.539 312.862 270.374 312.974 270.209 313.085L270.767 313.914C269.102 315.034 267.417 316.124 265.71 317.185L265.182 316.335C264.983 316.459 264.783 316.583 264.582 316.706C264.51 316.751 264.437 316.796 264.364 316.84C264.354 316.847 264.343 316.853 264.333 316.859L264.855 317.712C263.145 318.76 261.415 319.778 259.665 320.764L259.174 319.893C258.884 320.057 258.594 320.219 258.303 320.381L258.788 321.255C257.036 322.229 255.264 323.172 253.473 324.084L253.019 323.193C252.911 323.248 252.802 323.303 252.693 323.358C252.505 323.454 252.317 323.548 252.128 323.643L252.577 324.537C250.784 325.435 248.974 326.302 247.145 327.137L246.73 326.227C246.427 326.365 246.124 326.502 245.821 326.639L246.231 327.551C244.402 328.372 242.555 329.161 240.692 329.917L240.316 328.991C240.008 329.116 239.7 329.24 239.391 329.363L239.761 330.292C237.899 331.034 236.02 331.744 234.125 332.42L233.789 331.478C233.677 331.518 233.566 331.558 233.454 331.597C233.253 331.669 233.051 331.739 232.85 331.81L233.18 332.754C231.288 333.416 229.379 334.045 227.456 334.64L227.161 333.684C226.844 333.782 226.527 333.879 226.209 333.975L226.499 334.933C224.581 335.513 222.648 336.059 220.702 336.571L220.448 335.604C220.126 335.688 219.803 335.772 219.48 335.855L219.728 336.824C217.79 337.321 215.838 337.783 213.873 338.211L213.66 337.234C213.334 337.305 213.008 337.375 212.682 337.444L212.889 338.422C210.932 338.836 208.961 339.215 206.979 339.559L206.808 338.574C206.48 338.631 206.152 338.686 205.823 338.741L205.988 339.728C204.015 340.058 202.029 340.353 200.033 340.612L199.904 339.62C199.575 339.663 199.245 339.705 198.914 339.746L199.037 340.738C197.051 340.984 195.054 341.195 193.047 341.37L192.96 340.373C192.629 340.402 192.298 340.43 191.967 340.457L192.048 341.453C190.052 341.615 188.047 341.741 186.032 341.832L185.987 340.833C185.656 340.848 185.325 340.861 184.993 340.874L185.032 341.873C183.032 341.951 181.023 341.993 179.005 341.999L179.002 340.999C178.835 341 178.667 341 178.5 341Z" stroke="#A7F4B3" stroke-width="2" stroke-linejoin="bevel" stroke-dasharray="1 6"/>
</g>
<defs>
<filter id="filter0_d" x="39" y="39" width="278" height="278" filterUnits="userSpaceOnUse" color-interpolation-filters="sRGB">
<feFlood flood-opacity="0" result="BackgroundImageFix"/>
<feColorMatrix in="SourceAlpha" type="matrix" values="0 0 0 0 0 0 0 0 0 0 0 0 0 0 0 0 0 0 127 0"/>
<feOffset dy="2"/>
<feGaussianBlur stdDeviation="9.5"/>
<feColorMatrix type="matrix" values="0 0 0 0 0 0 0 0 0 0 0 0 0 0 0 0 0 0 0.5 0"/>
<feBlend mode="normal" in2="BackgroundImageFix" result="effect1_dropShadow"/>
<feBlend mode="normal" in="SourceGraphic" in2="effect1_dropShadow" result="shape"/>
</filter>
<filter id="filter1_d" x="81" y="94" width="181" height="181" filterUnits="userSpaceOnUse" color-interpolation-filters="sRGB">
<feFlood flood-opacity="0" result="BackgroundImageFix"/>
<feColorMatrix in="SourceAlpha" type="matrix" values="0 0 0 0 0 0 0 0 0 0 0 0 0 0 0 0 0 0 127 0"/>
<feOffset dy="5"/>
<feGaussianBlur stdDeviation="6.5"/>
<feColorMatrix type="matrix" values="0 0 0 0 0 0 0 0 0 0 0 0 0 0 0 0 0 0 0.932801 0"/>
<feBlend mode="normal" in2="BackgroundImageFix" result="effect1_dropShadow"/>
<feBlend mode="normal" in="SourceGraphic" in2="effect1_dropShadow" result="shape"/>
</filter>
<filter id="filter2_d" x="0" y="0" width="357" height="357" filterUnits="userSpaceOnUse" color-interpolation-filters="sRGB">
<feFlood flood-opacity="0" result="BackgroundImageFix"/>
<feColorMatrix in="SourceAlpha" type="matrix" values="0 0 0 0 0 0 0 0 0 0 0 0 0 0 0 0 0 0 127 0"/>
<feOffset dy="2"/>
<feGaussianBlur stdDeviation="6.5"/>
<feColorMatrix type="matrix" values="0 0 0 0 0 0 0 0 0 0 0 0 0 0 0 0 0 0 0.5 0"/>
<feBlend mode="normal" in2="BackgroundImageFix" result="effect1_dropShadow"/>
<feBlend mode="normal" in="SourceGraphic" in2="effect1_dropShadow" result="shape"/>
</filter>
</defs>
</svg>
