<svg width="50" height="51" viewBox="0 0 50 51" fill="none" xmlns="http://www.w3.org/2000/svg">
<path d="M17.4341 17.4723L14.448 24.4975L21.5662 21.7381L24.5498 14.7123L17.4341 17.4723Z" fill="#FCB76E"/>
<path d="M21.5662 21.7381L25.5295 25.8297L15.1437 29.8555L14.448 24.4975L21.5662 21.7381Z" fill="#FAA74A"/>
<path d="M33.3345 33.8873L25.5296 25.8297L15.1437 29.8555L26.2163 36.6466L33.3345 33.8873Z" fill="#F7941E"/>
<path d="M21.5662 21.7381L25.5295 25.8297L29.8834 15.5777L24.5498 14.7123L21.5662 21.7381Z" fill="#F7941E"/>
<path d="M33.3345 33.8872L25.5295 25.8297L29.8834 15.5777L36.3181 26.8615L33.3345 33.8872Z" fill="#F58220"/>
<path d="M20.7236 20.8683L15.3603 15.3314L8.37604 14.1069L2.37083 18.4252L9.18985 18.4403L12.7058 19.9663L16.5081 22.502L20.7236 20.8683Z" fill="#2FB585"/>
<path d="M20.7236 20.8683L15.3603 15.3314L14.3581 8.31227L18.8655 2.44758L18.663 9.26405L20.0769 12.8262L22.4901 16.7074L20.7236 20.8683Z" fill="#0DB176"/>
<path d="M9.70831 14.341L8.24758 7.98855L14.5493 9.65176L15.3603 15.3314L9.70831 14.341Z" fill="#00AB78"/>
<path d="M26.2163 36.6466L33.3345 33.8872L41.4003 42.214L40.0112 42.5718L26.2163 36.6466Z" fill="#F58220"/>
<path d="M36.3186 26.861L33.3345 33.8872L41.4003 42.214L41.8016 40.8375L36.3186 26.861Z" fill="#DF6D27"/>
</svg>
